# xmcd
#
# Track frame offsets:
#	150
#	13245
#	25955
#	40150
#	51212
#	64695
#	78352
#	91437
#	105695
#	119857
#	132730
#	145377
#	160412
#	173152
#	187060
#	199720
#	212670
#	227747
#	242907
#	256490
#	267737
#	281252
#	295655
#	309067
#
# Disc length: 4280 seconds
#
# Revision: 2
# Processed by: cddbd v1.4b41PL2 Copyright (c) Steve Scherf et al.
# Submitted via: CDmax 1.7.6
#
DISCID=6e10b618
DTITLE=Jimmie Davis - Nobody's Darlin' But Mine, Volume #2
DYEAR=1900
DGENRE=
TTITLE0=Hobo's Warning
TTITLE1=Wild and Reckless Hobo
TTITLE2=David Limited
TTITLE3=She Left a Runnin' Like a Sewing Machine
TTITLE4=Down at the Old Country Church
TTITLE5=She's a Hum-Dum Dinger, Pt. 2
TTITLE6=Market House Blues
TTITLE7=Get on Board, Aunt Susan
TTITLE8=Midnight Blues
TTITLE9=There's Evil in Ye Children, Gather 'Round
TTITLE10=Pea Pickin' Papa
TTITLE11=I'll Get Mine Bye and Bye
TTITLE12=Barnyard Stomp
TTITLE13=I Wonder (If She Is Blue)
TTITLE14=1982 Blues (Davis' Last Day Blues)
TTITLE15=High Behind Blues
TTITLE16=Saturday Night Stroll
TTITLE17=Sewing Machine
TTITLE18=Red Nightgown Blues
TTITLE19=Davis' Salty Dog
TTITLE20=You Can't Tell About the Women Nowaday's
TTITLE21=Shotgun Wedding
TTITLE22=Hole 'Er, Newt
TTITLE23=Yo Yo Mama
EXTD=
EXTT0=
EXTT1=
EXTT2=
EXTT3=
EXTT4=
EXTT5=
EXTT6=
EXTT7=
EXTT8=
EXTT9=
EXTT10=
EXTT11=
EXTT12=
EXTT13=
EXTT14=
EXTT15=
EXTT16=
EXTT17=
EXTT18=
EXTT19=
EXTT20=
EXTT21=
EXTT22=
EXTT23=
PLAYORDER=
